<?xml version="1.0" encoding="utf-8"?>
<!-- Generator: Adobe Illustrator 16.0.0, SVG Export Plug-In . SVG Version: 6.00 Build 0)  -->
<!DOCTYPE svg PUBLIC "-//W3C//DTD SVG 1.1//EN" "http://www.w3.org/Graphics/SVG/1.1/DTD/svg11.dtd" [
	<!ENTITY st0 "fill:#231F20;">
]>
<svg version="1.1" id="Calque_1" xmlns="http://www.w3.org/2000/svg" xmlns:xlink="http://www.w3.org/1999/xlink" x="0px" y="0px"
	 width="364.735px" height="127.13px" viewBox="0 0 364.735 127.13" style="enable-background:new 0 0 364.735 127.13;"
	 xml:space="preserve">
<g>
	<path style="&st0;" d="M138.699,110.025h7.986c4.701,0,7.023,2.41,7.023,5.609c0,3.271-2.805,5.416-6.736,5.416h-4.434v5.646
		h-3.842L138.699,110.025 M142.541,118.423h3.699c2.342,0,3.504-1.162,3.504-2.789c0-2.357-1.484-3.002-3.646-3.002h-3.557V118.423z
		"/>
	<path style="&st0;" d="M163.576,110.025h4.371l6.709,16.674h-3.957l-1.152-3.234h-7.598l-1.125,3.234h-3.934L163.576,110.025
		 M165.793,113.062h-0.053l-2.789,7.611h5.594L165.793,113.062z"/>
	<path style="&st0;" d="M179.268,110.025h8.348c4.234,0,6.771,2.127,6.771,5.004c0,3.754-3.02,4.646-3.982,4.932l4.467,6.738h-4.369
		l-3.869-6.129h-3.609v6.129h-3.754L179.268,110.025 M183.022,117.781h4.146c1.875,0,3.27-0.932,3.27-2.502
		c0-1.521-1.23-2.502-3.867-2.502h-3.549V117.781z"/>
	<rect x="199.993" y="110.025" style="&st0;" width="3.74" height="16.674"/>
	<path style="&st0;" d="M211.813,121.675c1.41,1.715,3.574,2.521,6.039,2.521c1.844,0,4.254-0.482,4.254-2.127
		c0-1.307-1.48-1.682-4.129-2.197l-2.23-0.43c-3.217-0.572-6.023-1.592-6.023-4.646c0-3.502,4.039-5.201,7.773-5.201
		c3.432,0,6.246,1.057,8.346,3.344l-3.109,1.947c-0.945-1.482-2.805-2.377-5.254-2.377c-2.162,0-3.807,0.682-3.807,1.84
		c0,1.396,1.877,1.699,4.129,2.127l2.457,0.432c2.957,0.553,5.764,1.555,5.764,4.717c0,4.076-4.609,5.506-8.773,5.506
		c-3.309,0-6.73-1.232-8.668-3.52L211.813,121.675"/>
	<path style="&st0;" d="M284.352,9.203h-10.283l-26.994,52.523h9.328l6.771-13.502h31.738l6.953,13.502h9.221L284.352,9.203
		 M266.661,41.426l12.48-24.824l12.447,24.824H266.661z"/>
	<polyline style="&st0;" points="0.037,9.203 0.037,61.727 47.735,61.727 47.735,56.035 7.346,56.035 7.346,9.203 0.037,9.203 	"/>
	<polyline style="&st0;" points="41.623,9.203 34.045,27.789 39.514,27.789 49.504,9.203 41.623,9.203 	"/>
	<path style="&st0;" d="M88.553,0C70.494,0,53.248,13.797,53.248,33.062c0,19.211,15.127,32.97,35.305,32.97
		c24.107,0,36.207-17.117,36.207-32.97C124.76,16.281,112.107,0,88.553,0 M88.553,59.475c-13.654,0-26.396-10.955-26.396-26.411
		c0-17.031,15.153-26.521,26.396-26.44c18.961,0.125,27.691,15.145,27.691,26.44C116.244,46.68,103.994,59.475,88.553,59.475z"/>
	<path style="&st0;" d="M173.146,39.709c0,0,13.077-3.725,13.077-15.377c0-15.344-16.249-15.129-16.249-15.129h-35.617v52.523h7.436
		V39.709h21.785l16.109,22.018h9.305L173.146,39.709 M167.865,33.41h-26.154V15.422l26.154,0.027c0,0,10.223-0.223,10.223,8.838
		C178.088,33.965,167.865,33.41,167.865,33.41z"/>
	<polyline style="&st0;" points="317.04,9.266 317.04,61.781 364.737,61.781 364.737,56.115 324.368,56.115 324.368,9.283 
		317.04,9.266 	"/>
	<polyline style="&st0;" points="199.481,9.248 199.481,61.709 245.965,61.709 245.965,55.946 207.434,55.946 207.434,37.735 
		236.459,37.735 236.459,31.738 207.434,31.738 207.434,14.967 245.983,14.967 245.983,9.203 199.481,9.248 	"/>
	<polyline style="&st0;" points="223.618,0.688 217.639,7.461 236.59,0.688 223.618,0.688 	"/>
	<path style="&st0;" d="M51.971,82.736c0-2.082-2.047-2.707-4.94-2.707h-6.996v5.369h6.996
		C49.924,85.398,51.971,84.773,51.971,82.736z"/>
	<path style="&st0;" d="M18.123,80.029H10.51v5.314h7.166c2.654,0,4.494-0.787,4.494-2.664C22.17,80.955,21,80.029,18.123,80.029z"
		/>
	<g>
		<path style="&st0;" d="M230.329,79.507c-4.646,0-6.758,3.064-6.758,6.496c0,3.467,2.107,6.559,6.758,6.559
			c4.629,0,6.734-3.092,6.734-6.559C237.065,82.572,234.958,79.507,230.329,79.507z"/>
		<path style="&st0;" d="M76.061,79.507c-4.609,0-6.719,3.064-6.719,6.496c0,3.467,2.107,6.559,6.719,6.559
			c4.639,0,6.758-3.092,6.758-6.559C82.818,82.572,80.697,79.507,76.061,79.507z"/>
		<path style="&st0;" d="M0,71.841v28.299h364.594V71.841H0z M18.873,87.15H10.51v6.666H7.453V78.169h11.68
			c2.851,0,6.095,1.146,6.095,4.566C25.228,85.753,21.928,87.15,18.873,87.15z M52.346,93.816l-6.291-6.613h-6.021v6.613h-3.103
			V78.169h10.607c3.699,0,7.559,1,7.559,4.566c0,1.98-1.411,3.932-5.45,4.322l6.45,6.758H52.346z M76.061,94.242
			c-5.854,0-9.436-3.342-9.436-8.238c0-4.852,3.582-8.176,9.436-8.176c5.846,0,9.438,3.324,9.438,8.176
			C85.496,90.902,81.904,94.242,76.061,94.242z M111.178,80.029h-11.92v4.619h11.035v1.82H99.258v7.348h-3.119V78.169h15.039V80.029
			z M141.236,93.816h-16.779V78.169h16.459v1.859h-13.387v4.777h11.605v1.859h-11.605v5.344h13.707V93.816z M157.643,94.066
			c-1.662,0-3.262-0.307-4.822-0.625l0.34-2.074c1.178,0.34,3.18,0.752,4.869,0.752c1.9,0,4.574-0.697,4.574-2.559
			c0-3.447-10.018-2.502-10.018-7.324c0-2.764,3.27-4.246,7.506-4.246c1.537,0,3.379,0.18,4.969,0.57l-0.43,2.059
			c-1.75-0.447-2.682-0.662-4.395-0.662c-1.887,0-4.111,0.482-4.111,2.082c0,2.984,10.027,2.305,10.027,7.434
			C166.152,92.759,162.318,94.066,157.643,94.066z M183.307,94.066c-1.645,0-3.252-0.307-4.79-0.625l0.322-2.074
			c1.125,0.34,3.154,0.752,4.862,0.752c1.93,0,4.592-0.697,4.592-2.559c0-3.447-10.063-2.502-10.063-7.324
			c0-2.764,3.289-4.246,7.489-4.246c1.559,0,3.414,0.18,5.023,0.57l-0.447,2.059c-1.752-0.447-2.682-0.662-4.432-0.662
			c-1.844,0-4.061,0.482-4.061,2.082c0,2.984,10.045,2.305,10.045,7.434C191.85,92.759,187.993,94.066,183.307,94.066z
			 M208.149,93.816h-3.107V78.169h3.107V93.816z M230.329,94.242c-5.826,0-9.418-3.342-9.418-8.238c0-4.852,3.592-8.176,9.418-8.176
			c5.844,0,9.436,3.324,9.436,8.176C239.762,90.902,236.172,94.242,230.329,94.242z M268.922,93.816h-3.137l-12.42-12.307h-0.059
			v12.307h-2.895V78.169h3.162l12.35,12.375h0.072V78.169h2.922v15.646H268.922z M300.883,93.816h-3.137l-12.412-12.307h-0.1v12.307
			h-2.867V78.169h3.127l12.422,12.375h0.053V78.169h2.914V93.816L300.883,93.816z M331.102,93.816h-16.779V78.169h16.479v1.859
			h-13.387v4.777h11.617v1.859h-11.617v5.344h13.688V93.816z M358,93.816H343.19V78.169h3.119v13.842h11.689v1.805H358z"/>
	</g>
</g>
</svg>
